<mxfile host="app.diagrams.net" modified="2020-05-03T22:18:06.955Z" agent="5.0 (Macintosh; Intel Mac OS X 10_15_2) AppleWebKit/537.36 (KHTML, like Gecko) Chrome/81.0.4044.129 Safari/537.36" etag="0nMILzG6--7URn0OkCUR" version="13.0.5" type="github">
  <diagram id="CBDz3zqInydYnpbgPdc8" name="Page-1">
    <mxGraphModel dx="788" dy="481" grid="1" gridSize="10" guides="1" tooltips="1" connect="1" arrows="1" fold="1" page="1" pageScale="1" pageWidth="1100" pageHeight="850" math="0" shadow="0">
      <root>
        <mxCell id="0" />
        <mxCell id="1" parent="0" />
        <mxCell id="O35m1b_gPNPNUmbekiKG-8" value="" style="edgeStyle=orthogonalEdgeStyle;rounded=0;orthogonalLoop=1;jettySize=auto;html=1;exitX=0.9;exitY=1;exitDx=0;exitDy=0;exitPerimeter=0;" parent="1" source="O35m1b_gPNPNUmbekiKG-6" target="O35m1b_gPNPNUmbekiKG-7" edge="1">
          <mxGeometry relative="1" as="geometry">
            <mxPoint x="820" y="210" as="sourcePoint" />
          </mxGeometry>
        </mxCell>
        <mxCell id="O35m1b_gPNPNUmbekiKG-6" value="&lt;font style=&quot;font-size: 24px&quot;&gt;APP&lt;/font&gt;" style="rounded=1;whiteSpace=wrap;html=1;arcSize=0;" parent="1" vertex="1">
          <mxGeometry x="280" y="100" width="600" height="60" as="geometry" />
        </mxCell>
        <mxCell id="O35m1b_gPNPNUmbekiKG-10" value="" style="edgeStyle=orthogonalEdgeStyle;rounded=0;orthogonalLoop=1;jettySize=auto;html=1;" parent="1" source="O35m1b_gPNPNUmbekiKG-7" edge="1">
          <mxGeometry relative="1" as="geometry">
            <mxPoint x="820" y="469" as="targetPoint" />
          </mxGeometry>
        </mxCell>
        <mxCell id="O35m1b_gPNPNUmbekiKG-7" value="&lt;font style=&quot;font-size: 24px&quot;&gt;Sender Meta Buffer&lt;/font&gt;" style="rounded=1;whiteSpace=wrap;html=1;arcSize=0;" parent="1" vertex="1">
          <mxGeometry x="740" y="340" width="160" height="80" as="geometry" />
        </mxCell>
        <mxCell id="O35m1b_gPNPNUmbekiKG-12" style="edgeStyle=orthogonalEdgeStyle;rounded=0;orthogonalLoop=1;jettySize=auto;html=1;entryX=0.5;entryY=1;entryDx=0;entryDy=0;" parent="1" target="O35m1b_gPNPNUmbekiKG-14" edge="1">
          <mxGeometry relative="1" as="geometry">
            <mxPoint x="610.2857142857142" y="370" as="targetPoint" />
            <mxPoint x="610" y="469" as="sourcePoint" />
            <Array as="points" />
          </mxGeometry>
        </mxCell>
        <mxCell id="O35m1b_gPNPNUmbekiKG-9" value="&lt;font style=&quot;font-size: 24px&quot;&gt;Scheduler&lt;/font&gt;" style="rounded=1;whiteSpace=wrap;html=1;arcSize=0;" parent="1" vertex="1">
          <mxGeometry x="260" y="470" width="640" height="60" as="geometry" />
        </mxCell>
        <mxCell id="O35m1b_gPNPNUmbekiKG-25" value="" style="edgeStyle=orthogonalEdgeStyle;rounded=0;orthogonalLoop=1;jettySize=auto;html=1;entryX=1;entryY=0.5;entryDx=0;entryDy=0;" parent="1" source="O35m1b_gPNPNUmbekiKG-14" target="eUcBHs-z1_nmx1WXnV4A-1" edge="1">
          <mxGeometry relative="1" as="geometry">
            <mxPoint x="470" y="380" as="targetPoint" />
          </mxGeometry>
        </mxCell>
        <mxCell id="eUcBHs-z1_nmx1WXnV4A-6" style="edgeStyle=orthogonalEdgeStyle;rounded=0;orthogonalLoop=1;jettySize=auto;html=1;exitX=0.25;exitY=0;exitDx=0;exitDy=0;entryX=0.716;entryY=1;entryDx=0;entryDy=0;entryPerimeter=0;" edge="1" parent="1" source="O35m1b_gPNPNUmbekiKG-14" target="O35m1b_gPNPNUmbekiKG-20">
          <mxGeometry relative="1" as="geometry" />
        </mxCell>
        <mxCell id="O35m1b_gPNPNUmbekiKG-14" value="&lt;font style=&quot;font-size: 24px&quot;&gt;Feature extractor&lt;/font&gt;" style="rounded=0;whiteSpace=wrap;html=1;" parent="1" vertex="1">
          <mxGeometry x="505" y="340" width="210" height="80" as="geometry" />
        </mxCell>
        <mxCell id="O35m1b_gPNPNUmbekiKG-34" style="edgeStyle=orthogonalEdgeStyle;rounded=0;orthogonalLoop=1;jettySize=auto;html=1;entryX=0.164;entryY=0.021;entryDx=0;entryDy=0;entryPerimeter=0;exitX=0.5;exitY=1;exitDx=0;exitDy=0;" parent="1" source="eUcBHs-z1_nmx1WXnV4A-1" target="O35m1b_gPNPNUmbekiKG-9" edge="1">
          <mxGeometry relative="1" as="geometry">
            <mxPoint x="365" y="430" as="sourcePoint" />
          </mxGeometry>
        </mxCell>
        <mxCell id="O35m1b_gPNPNUmbekiKG-23" value="" style="edgeStyle=orthogonalEdgeStyle;rounded=0;orthogonalLoop=1;jettySize=auto;html=1;" parent="1" source="O35m1b_gPNPNUmbekiKG-20" target="O35m1b_gPNPNUmbekiKG-22" edge="1">
          <mxGeometry relative="1" as="geometry" />
        </mxCell>
        <mxCell id="O35m1b_gPNPNUmbekiKG-20" value="&lt;font style=&quot;font-size: 24px&quot;&gt;Collector&lt;/font&gt;" style="rounded=1;whiteSpace=wrap;html=1;" parent="1" vertex="1">
          <mxGeometry x="450" y="220" width="150" height="60" as="geometry" />
        </mxCell>
        <mxCell id="O35m1b_gPNPNUmbekiKG-29" value="&lt;font style=&quot;font-size: 24px&quot;&gt;Trainer&lt;/font&gt;" style="rounded=1;whiteSpace=wrap;html=1;" parent="1" vertex="1">
          <mxGeometry x="280" y="220" width="150" height="60" as="geometry" />
        </mxCell>
        <mxCell id="O35m1b_gPNPNUmbekiKG-22" value="&lt;font style=&quot;font-size: 18px&quot;&gt;Replay Buffer&lt;/font&gt;" style="rounded=1;whiteSpace=wrap;html=1;" parent="1" vertex="1">
          <mxGeometry x="630" y="220" width="150" height="60" as="geometry" />
        </mxCell>
        <mxCell id="O35m1b_gPNPNUmbekiKG-28" value="" style="endArrow=classic;html=1;entryX=0.06;entryY=1;entryDx=0;entryDy=0;entryPerimeter=0;" parent="1" target="O35m1b_gPNPNUmbekiKG-20" edge="1">
          <mxGeometry width="50" height="50" relative="1" as="geometry">
            <mxPoint x="459" y="340" as="sourcePoint" />
            <mxPoint x="459" y="290" as="targetPoint" />
          </mxGeometry>
        </mxCell>
        <mxCell id="O35m1b_gPNPNUmbekiKG-32" value="" style="endArrow=classic;html=1;entryX=0.275;entryY=1.04;entryDx=0;entryDy=0;entryPerimeter=0;" parent="1" target="O35m1b_gPNPNUmbekiKG-20" edge="1">
          <mxGeometry width="50" height="50" relative="1" as="geometry">
            <mxPoint x="490" y="380" as="sourcePoint" />
            <mxPoint x="540" y="330" as="targetPoint" />
          </mxGeometry>
        </mxCell>
        <mxCell id="O35m1b_gPNPNUmbekiKG-33" value="" style="endArrow=classic;html=1;exitX=0.5;exitY=0;exitDx=0;exitDy=0;entryX=0.557;entryY=0.007;entryDx=0;entryDy=0;entryPerimeter=0;" parent="1" source="O35m1b_gPNPNUmbekiKG-22" target="O35m1b_gPNPNUmbekiKG-29" edge="1">
          <mxGeometry width="50" height="50" relative="1" as="geometry">
            <mxPoint x="330" y="130" as="sourcePoint" />
            <mxPoint x="368" y="210" as="targetPoint" />
            <Array as="points">
              <mxPoint x="705" y="180" />
              <mxPoint x="510" y="180" />
              <mxPoint x="364" y="180" />
            </Array>
          </mxGeometry>
        </mxCell>
        <mxCell id="O35m1b_gPNPNUmbekiKG-36" value="" style="shape=flexArrow;endArrow=classic;startArrow=none;html=1;startFill=0;width=208.23529411764707;endSize=23.529411764705884;endWidth=165.60553633217992;" parent="1" edge="1">
          <mxGeometry width="50" height="50" relative="1" as="geometry">
            <mxPoint x="570" y="530" as="sourcePoint" />
            <mxPoint x="570" y="630" as="targetPoint" />
          </mxGeometry>
        </mxCell>
        <mxCell id="eUcBHs-z1_nmx1WXnV4A-7" style="edgeStyle=orthogonalEdgeStyle;rounded=0;orthogonalLoop=1;jettySize=auto;html=1;exitX=0.567;exitY=1.033;exitDx=0;exitDy=0;entryX=0.5;entryY=0;entryDx=0;entryDy=0;exitPerimeter=0;" edge="1" parent="1" source="O35m1b_gPNPNUmbekiKG-29" target="eUcBHs-z1_nmx1WXnV4A-1">
          <mxGeometry relative="1" as="geometry">
            <mxPoint x="365" y="330" as="sourcePoint" />
          </mxGeometry>
        </mxCell>
        <mxCell id="eUcBHs-z1_nmx1WXnV4A-1" value="&lt;span style=&quot;font-size: 24px&quot;&gt;Policy Network&lt;/span&gt;" style="rounded=1;whiteSpace=wrap;html=1;" vertex="1" parent="1">
          <mxGeometry x="260" y="340" width="210" height="80" as="geometry" />
        </mxCell>
      </root>
    </mxGraphModel>
  </diagram>
</mxfile>
